<?xml version="1.0" standalone="no"?>
<!DOCTYPE svg PUBLIC "-//W3C//DTD SVG 20010904//EN"
 "http://www.w3.org/TR/2001/REC-SVG-20010904/DTD/svg10.dtd">
<svg version="1.0" xmlns="http://www.w3.org/2000/svg"
 width="252.000000pt" height="274.000000pt" viewBox="0 0 252.000000 274.000000"
 preserveAspectRatio="xMidYMid meet">

<g transform="translate(0.000000,274.000000) scale(0.100000,-0.100000)"
fill="#000000" stroke="none">
<path d="M1151 2558 c-16 -35 -41 -92 -56 -128 -15 -36 -43 -96 -62 -134 -18
-38 -33 -73 -33 -78 0 -4 -26 -63 -59 -130 -32 -68 -75 -161 -96 -208 -96
-213 -170 -383 -206 -470 -38 -92 -107 -248 -191 -435 -37 -81 -75 -167 -200
-450 -22 -49 -50 -112 -63 -140 -50 -109 -64 -142 -84 -187 l-20 -48 103 0
103 0 36 82 c20 46 51 119 70 163 19 44 48 109 64 145 71 153 144 321 176 400
19 47 51 119 71 161 20 42 36 79 36 83 0 4 12 33 26 64 14 31 46 100 70 153
24 53 44 99 44 102 0 4 16 39 36 79 20 40 50 109 69 153 18 44 76 175 130 290
54 116 122 266 151 335 30 69 59 133 64 143 6 10 19 40 30 67 l20 50 -101 0
-100 0 -28 -62z"/>
<path d="M1367 1649 l-47 -112 30 -67 c17 -38 30 -71 30 -74 0 -3 22 -52 49
-108 27 -57 63 -139 81 -183 18 -44 37 -86 43 -92 7 -10 -40 -13 -232 -13
l-241 0 -40 -86 c-22 -48 -40 -88 -40 -90 0 -2 143 -4 318 -4 l319 0 27 -67
c15 -38 41 -95 56 -128 41 -86 163 -350 193 -417 l26 -58 95 0 c53 0 96 2 96
5 0 3 -30 72 -66 153 -144 322 -172 388 -179 412 -4 14 -32 77 -62 140 -30 63
-61 131 -68 150 -7 19 -29 69 -48 110 -19 41 -47 104 -62 140 -61 148 -222
500 -228 500 -2 0 -25 -50 -50 -111z"/>
</g>
</svg>
